:FULLY-SPECIFIED
:FORCE-ALL-JOINTS-BE-3DOF
:DEGREES
679
root 5.36615 16.0946 0.923185 15.6688 -23.2637 0.00478013
lfemur -37.2228 26.5939 -10.2235
ltibia 106.48 0 0
lfoot 22.7826 -21.0669 0
ltoes 13.7221 0 0
rfemur -38.4597 -11.4228 26.216
rtibia 61.5558 0 0
rfoot -24.2874 -6.12902 0
rtoes 0.158054 0 0
lowerback 0.983374 -6.67723 0.112928
upperback -1.88847 -8.89856 0.944236
thorax -2.35464 -4.44124 1.16379
lowerneck -9.48388 -3.62217 0.69944
upperneck 2.50615 -5.03228 2.08481
head 2.475 -2.43141 0.293524
lclavicle 9.0944e-14 -1.47101e-14 0
lhumerus 15.0837 -62.2156 54.3049
lradius 92.0489 0 0
lwrist 29.6201 0 0
lhand -14.5917 -1.26607 0
lfingers 7.12502 0 0
lthumb 11.5586 28.3952 0
rclavicle 9.0944e-14 -1.47101e-14 0
rhumerus -45.979 -9.43594 -44.2956
rradius 77.3869 0 0
rwrist -22.0059 0 0
rhand -26.8769 -47.7516 0
rfingers 7.12502 0 0
rthumb -0.301241 -797.731 0
680
root 5.35511 16.1789 1.05834 15.4259 -24.6083 0.0780694
lfemur -38.436 26.4448 -7.17388
ltibia 109.972 0 0
lfoot 22.5151 -21.0909 0
ltoes 14.2589 0 0
rfemur -36.8301 -10.8197 25.5424
rtibia 59.6551 0 0
rfoot -23.8971 -5.53441 0
rtoes 0.763105 0 0
lowerback 1.23084 -6.64461 -0.0352925
upperback -1.85808 -8.86415 0.765668
thorax -2.46789 -4.42124 1.09148
lowerneck -9.18189 -3.65022 0.652142
upperneck 2.65461 -5.07351 2.25232
head 2.47639 -2.44731 0.357565
lclavicle 6.74708e-14 -1.38487e-14 0
lhumerus 17.588 -59.771 49.9063
lradius 92.0477 0 0
lwrist 30.0135 0 0
lhand -14.9134 -1.42436 0
lfingers 7.12502 0 0
lthumb 11.2483 28.2528 0
rclavicle 6.74708e-14 -1.38487e-14 0
rhumerus -45.4582 -8.95936 -42.554
rradius 79.7559 0 0
rwrist -21.1865 0 0
rhand -26.9958 -47.2066 0
rfingers 7.12502 0 0
rthumb -0.416099 -797.186 0
681
root 5.34407 16.2633 1.1935 15.183 -25.9529 0.151359
lfemur -39.6492 26.2957 -4.12427
ltibia 113.464 0 0
lfoot 22.2476 -21.1149 0
ltoes 14.7957 0 0
rfemur -35.2005 -10.2167 24.8689
rtibia 57.7545 0 0
rfoot -23.5069 -4.9398 0
rtoes 1.36816 0 0
lowerback 1.47831 -6.61199 -0.183513
upperback -1.8277 -8.82973 0.587101
thorax -2.58114 -4.40124 1.01916
lowerneck -8.87991 -3.67826 0.604844
upperneck 2.80307 -5.11474 2.41982
head 2.47779 -2.46322 0.421607
lclavicle 4.39977e-14 -1.29873e-14 0
lhumerus 20.0924 -57.3264 45.5077
lradius 92.0466 0 0
lwrist 30.4069 0 0
lhand -15.2351 -1.58265 0
lfingers 7.12502 0 0
lthumb 10.938 28.1105 0
rclavicle 4.39977e-14 -1.29873e-14 0
rhumerus -44.9373 -8.48278 -40.8124
rradius 82.1248 0 0
rwrist -20.3671 0 0
rhand -27.1148 -46.6616 0
rfingers 7.12502 0 0
rthumb -0.530957 -796.64 0
682
root 5.33303 16.3476 1.32866 14.9401 -27.2975 0.224648
lfemur -40.8624 26.1466 -1.07465
ltibia 116.956 0 0
lfoot 21.9802 -21.139 0
ltoes 15.3324 0 0
rfemur -33.5709 -9.61359 24.1953
rtibia 55.8538 0 0
rfoot -23.1166 -4.34518 0
rtoes 1.97321 0 0
lowerback 1.72578 -6.57936 -0.331733
upperback -1.79731 -8.79531 0.408533
thorax -2.69439 -4.38124 0.946851
lowerneck -8.57792 -3.70631 0.557546
upperneck 2.95153 -5.15597 2.58732
head 2.47918 -2.47912 0.485648
lclavicle 2.05245e-14 -1.21259e-14 0
lhumerus 22.5967 -54.8818 41.1091
lradius 92.0454 0 0
lwrist 30.8003 0 0
lhand -15.5568 -1.74094 0
lfingers 7.12502 0 0
lthumb 10.6276 27.9681 0
rclavicle 2.05245e-14 -1.21259e-14 0
rhumerus -44.4164 -8.00619 -39.0709
rradius 84.4938 0 0
rwrist -19.5478 0 0
rhand -27.2337 -46.1166 0
rfingers 7.12502 0 0
rthumb -0.645815 -796.095 0
683
root 5.32198 16.4319 1.46382 14.6972 -28.6421 0.297937
lfemur -42.0756 25.9975 1.97497
ltibia 120.447 0 0
lfoot 21.7127 -21.163 0
ltoes 15.8692 0 0
rfemur -31.9412 -9.01051 23.5217
rtibia 53.9532 0 0
rfoot -22.7263 -3.75057 0
rtoes 2.57826 0 0
lowerback 1.97324 -6.54674 -0.479954
upperback -1.76692 -8.7609 0.229966
thorax -2.80763 -4.36125 0.874537
lowerneck -8.27593 -3.73436 0.510249
upperneck 3.09999 -5.1972 2.75483
head 2.48057 -2.49502 0.54969
lclavicle -2.94867e-15 -1.12645e-14 0
lhumerus 25.101 -52.4372 36.7106
lradius 92.0442 0 0
lwrist 31.1937 0 0
lhand -15.8785 -1.89923 0
lfingers 7.12502 0 0
lthumb 10.3173 27.8257 0
rclavicle -2.94867e-15 -1.12645e-14 0
rhumerus -43.8956 -7.52961 -37.3293
rradius 86.8628 0 0
rwrist -18.7284 0 0
rhand -27.3526 -45.5716 0
rfingers 7.12502 0 0
rthumb -0.760673 -795.55 0
684
root 5.31094 16.5163 1.59898 14.4543 -29.9867 0.371227
lfemur -43.2888 25.8484 5.02458
ltibia 123.939 0 0
lfoot 21.4452 -21.187 0
ltoes 16.406 0 0
rfemur -30.3116 -8.40744 22.8482
rtibia 52.0525 0 0
rfoot -22.3361 -3.15596 0
rtoes 3.18331 0 0
lowerback 2.22071 -6.51412 -0.628174
upperback -1.73654 -8.72649 0.0513985
thorax -2.92088 -4.34125 0.802224
lowerneck -7.97395 -3.7624 0.462951
upperneck 3.24845 -5.23843 2.92234
head 2.48197 -2.51093 0.613731
lclavicle -2.64218e-14 -1.04031e-14 0
lhumerus 27.6054 -49.9926 32.312
lradius 92.0431 0 0
lwrist 31.5871 0 0
lhand -16.2002 -2.05752 0
lfingers 7.12502 0 0
lthumb 10.007 27.6834 0
rclavicle -2.64218e-14 -1.04031e-14 0
rhumerus -43.3747 -7.05303 -35.5877
rradius 89.2317 0 0
rwrist -17.909 0 0
rhand -27.4716 -45.0266 0
rfingers 7.12502 0 0
rthumb -0.875531 -795.004 0
685
root 5.2999 16.6006 1.73414 14.2114 -31.3313 0.444516
lfemur -44.502 25.6993 8.0742
ltibia 127.431 0 0
lfoot 21.1777 -21.211 0
ltoes 16.9428 0 0
rfemur -28.682 -7.80437 22.1746
rtibia 50.1519 0 0
rfoot -21.9458 -2.56135 0
rtoes 3.78836 0 0
lowerback 2.46818 -6.4815 -0.776395
upperback -1.70615 -8.69207 -0.127169
thorax -3.03413 -4.32125 0.729911
lowerneck -7.67196 -3.79045 0.415653
upperneck 3.39691 -5.27966 3.08984
head 2.48336 -2.52683 0.677773
lclavicle -4.9895e-14 -9.54166e-15 0
lhumerus 30.1097 -47.548 27.9134
lradius 92.0419 0 0
lwrist 31.9805 0 0
lhand -16.5219 -2.21581 0
lfingers 7.12502 0 0
lthumb 9.69668 27.541 0
rclavicle -4.9895e-14 -9.54166e-15 0
rhumerus -42.8539 -6.57645 -33.8461
rradius 91.6007 0 0
rwrist -17.0896 0 0
rhand -27.5905 -44.4816 0
rfingers 7.12502 0 0
rthumb -0.990389 -794.459 0
686
root 5.29383 16.7772 1.89653 13.9616 -32.9541 0.71744
lfemur -45.2438 24.5978 10.3754
ltibia 128.021 0 0
lfoot 20.0898 -19.5401 0
ltoes 18.5978 0 0
rfemur -26.4999 -7.05653 21.1857
rtibia 46.3086 0 0
rfoot -19.5886 -1.73482 0
rtoes 4.33463 0 0
lowerback 2.58827 -6.29348 -0.974854
upperback -1.69414 -8.46351 -0.435353
thorax -3.1081 -4.20624 0.526289
lowerneck -7.4492 -3.90737 0.340792
upperneck 3.54443 -5.4535 3.41731
head 2.51109 -2.605 0.791308
lclavicle -2.25952e-14 -3.4456e-15 0
lhumerus 30.8552 -45.1249 25.7159
lradius 90.8876 0 0
lwrist 31.7498 0 0
lhand -17.0288 -2.68412 0
lfingers 7.12502 0 0
lthumb 9.20749 27.0919 0
rclavicle -2.25952e-14 -3.4456e-15 0
rhumerus -42.3944 -6.75192 -31.669
rradius 93.0244 0 0
rwrist -16.4051 0 0
rhand -28.2783 -43.924 0
rfingers 7.12502 0 0
rthumb -1.65464 -793.892 0
687
root 5.28777 16.9539 2.05892 13.7118 -34.5768 0.990364
lfemur -45.9855 23.4963 12.6767
ltibia 128.611 0 0
lfoot 19.0019 -17.8691 0
ltoes 20.2528 0 0
rfemur -24.3178 -6.30869 20.1968
rtibia 42.4653 0 0
rfoot -17.2315 -0.908283 0
rtoes 4.8809 0 0
lowerback 2.70836 -6.10546 -1.17331
upperback -1.68214 -8.23495 -0.743536
thorax -3.18207 -4.09124 0.322667
lowerneck -7.22643 -4.0243 0.265931
upperneck 3.69195 -5.62733 3.74478
head 2.53881 -2.68318 0.904842
lclavicle 4.70467e-15 2.65046e-15 0
lhumerus 31.6006 -42.7019 23.5184
lradius 89.7332 0 0
lwrist 31.5191 0 0
lhand -17.5357 -3.15243 0
lfingers 7.12502 0 0
lthumb 8.71829 26.6428 0
rclavicle 4.70467e-15 2.65046e-15 0
rhumerus -41.9348 -6.92739 -29.4919
rradius 94.4481 0 0
rwrist -15.7206 0 0
rhand -28.9661 -43.3664 0
rfingers 7.12502 0 0
rthumb -2.31889 -793.325 0
688
root 5.2817 17.1305 2.22131 13.4619 -36.1996 1.26329
lfemur -46.7273 22.3948 14.9779
ltibia 129.202 0 0
lfoot 17.914 -16.1982 0
ltoes 21.9078 0 0
rfemur -22.1357 -5.56084 19.2079
rtibia 38.6221 0 0
rfoot -14.8743 -0.08175 0
rtoes 5.42717 0 0
lowerback 2.82844 -5.91744 -1.37177
upperback -1.67013 -8.00639 -1.05172
thorax -3.25604 -3.97623 0.119044
lowerneck -7.00366 -4.14122 0.19107
upperneck 3.83948 -5.80116 4.07224
head 2.56654 -2.76136 1.01838
lclavicle 3.20045e-14 8.74652e-15 0
lhumerus 32.346 -40.2788 21.3209
lradius 88.5789 0 0
lwrist 31.2884 0 0
lhand -18.0425 -3.62075 0
lfingers 7.12502 0 0
lthumb 8.2291 26.1937 0
rclavicle 3.20045e-14 8.74652e-15 0
rhumerus -41.4753 -7.10286 -27.3148
rradius 95.8718 0 0
rwrist -15.036 0 0
rhand -29.654 -42.8088 0
rfingers 7.12502 0 0
rthumb -2.98314 -792.758 0
